<svg width="340" height="341" viewBox="0 0 340 341" fill="none" xmlns="http://www.w3.org/2000/svg">
<g clip-path="url(#clip0)" filter="url(#filter0_d)">
<rect width="321.286" height="323" transform="translate(6 6)" fill="#E7EBE7"/>
<path d="M31.2745 245.466C31.2745 242.153 33.9596 239.468 37.2719 239.468H294.301C297.613 239.468 300.298 242.153 300.298 245.466C300.298 262.973 286.106 277.166 268.598 277.166H62.9748C45.4672 277.166 31.2745 262.973 31.2745 245.466Z" stroke="black" stroke-opacity="0.6" stroke-width="0.856764"/>
<path d="M57.9713 256.513C58.0056 255.828 58.2455 255.3 58.691 254.93C59.1433 254.553 59.7362 254.365 60.4696 254.365C60.97 254.365 61.3983 254.454 61.7548 254.632C62.1112 254.803 62.3785 255.04 62.5567 255.341C62.7417 255.636 62.8343 255.972 62.8343 256.349C62.8343 256.781 62.7212 257.148 62.495 257.449C62.2757 257.744 62.0118 257.943 61.7034 258.045V258.087C62.1009 258.21 62.4093 258.429 62.6287 258.745C62.8548 259.06 62.9679 259.464 62.9679 259.958C62.9679 260.369 62.872 260.736 62.6801 261.058C62.495 261.38 62.2174 261.634 61.8473 261.819C61.484 261.997 61.0454 262.086 60.5313 262.086C59.7568 262.086 59.1262 261.891 58.6396 261.5C58.1529 261.109 57.8959 260.533 57.8685 259.773H59.2667C59.2804 260.108 59.3935 260.379 59.606 260.585C59.8253 260.784 60.1235 260.883 60.5005 260.883C60.85 260.883 61.1173 260.787 61.3024 260.595C61.4943 260.396 61.5903 260.143 61.5903 259.834C61.5903 259.423 61.46 259.128 61.1996 258.95C60.9391 258.772 60.5347 258.683 59.9864 258.683H59.6882V257.5H59.9864C60.9597 257.5 61.4463 257.175 61.4463 256.524C61.4463 256.229 61.3572 255.999 61.179 255.835C61.0077 255.67 60.7575 255.588 60.4285 255.588C60.1063 255.588 59.8562 255.677 59.678 255.856C59.5066 256.027 59.4072 256.246 59.3798 256.513H57.9713ZM68.889 255.66C68.6354 255.66 68.4229 255.581 68.2516 255.424C68.0871 255.259 68.0048 255.057 68.0048 254.817C68.0048 254.577 68.0871 254.378 68.2516 254.221C68.4229 254.056 68.6354 253.974 68.889 253.974C69.1426 253.974 69.3517 254.056 69.5162 254.221C69.6875 254.378 69.7732 254.577 69.7732 254.817C69.7732 255.057 69.6875 255.259 69.5162 255.424C69.3517 255.581 69.1426 255.66 68.889 255.66ZM69.5984 256.339V262.034H68.159V256.339H69.5984ZM73.416 257.521V260.276C73.416 260.468 73.4606 260.609 73.5497 260.698C73.6456 260.78 73.8033 260.821 74.0226 260.821H74.6909V262.034H73.7861C72.573 262.034 71.9664 261.445 71.9664 260.266V257.521H71.2878V256.339H71.9664V254.93H73.416V256.339H74.6909V257.521H73.416ZM81.7406 259.063C81.7406 259.269 81.7269 259.454 81.6995 259.618H77.5356C77.5699 260.03 77.7138 260.352 77.9674 260.585C78.221 260.818 78.5329 260.934 78.903 260.934C79.4376 260.934 79.818 260.705 80.0442 260.246H81.5967C81.4322 260.794 81.1169 261.246 80.6508 261.603C80.1847 261.952 79.6124 262.127 78.9339 262.127C78.3855 262.127 77.892 262.007 77.4534 261.767C77.0216 261.52 76.6823 261.174 76.4355 260.729C76.1956 260.283 76.0757 259.769 76.0757 259.187C76.0757 258.597 76.1956 258.08 76.4355 257.634C76.6754 257.189 77.0113 256.846 77.4431 256.606C77.8749 256.366 78.3718 256.246 78.9339 256.246C79.4753 256.246 79.9586 256.363 80.3835 256.596C80.8153 256.829 81.1477 257.161 81.3808 257.593C81.6207 258.018 81.7406 258.508 81.7406 259.063ZM80.2499 258.652C80.243 258.282 80.1093 257.987 79.8489 257.768C79.5884 257.542 79.2697 257.429 78.8927 257.429C78.5363 257.429 78.2347 257.538 77.988 257.758C77.7481 257.97 77.6007 258.268 77.5459 258.652H80.2499ZM90.5844 256.256C91.2835 256.256 91.8455 256.472 92.2705 256.904C92.7023 257.329 92.9182 257.925 92.9182 258.693V262.034H91.4788V258.888C91.4788 258.443 91.3657 258.104 91.1395 257.871C90.9134 257.631 90.6049 257.511 90.2142 257.511C89.8235 257.511 89.5117 257.631 89.2786 257.871C89.0525 258.104 88.9394 258.443 88.9394 258.888V262.034H87.5V258.888C87.5 258.443 87.3869 258.104 87.1607 257.871C86.9345 257.631 86.6261 257.511 86.2354 257.511C85.8379 257.511 85.5226 257.631 85.2896 257.871C85.0634 258.104 84.9503 258.443 84.9503 258.888V262.034H83.5109V256.339H84.9503V257.028C85.1353 256.788 85.3718 256.599 85.6597 256.462C85.9544 256.325 86.2765 256.256 86.6261 256.256C87.0716 256.256 87.4692 256.352 87.8187 256.544C88.1683 256.729 88.439 256.997 88.6309 257.346C88.816 257.017 89.0833 256.753 89.4329 256.555C89.7893 256.356 90.1731 256.256 90.5844 256.256ZM97.1833 262.127C96.7173 262.127 96.2992 262.045 95.929 261.88C95.5589 261.709 95.2642 261.479 95.0449 261.191C94.8324 260.904 94.7159 260.585 94.6953 260.235H96.1449C96.1724 260.455 96.2786 260.636 96.4637 260.78C96.6556 260.924 96.892 260.996 97.1731 260.996C97.4472 260.996 97.6597 260.941 97.8105 260.832C97.9681 260.722 98.047 260.581 98.047 260.41C98.047 260.225 97.951 260.088 97.7591 259.999C97.574 259.903 97.2759 259.8 96.8646 259.69C96.4397 259.588 96.0901 259.481 95.8159 259.372C95.5486 259.262 95.3156 259.094 95.1168 258.868C94.9249 258.642 94.829 258.337 94.829 257.953C94.829 257.638 94.9181 257.35 95.0963 257.089C95.2813 256.829 95.5418 256.623 95.8776 256.472C96.2203 256.322 96.6213 256.246 97.0805 256.246C97.7591 256.246 98.3006 256.418 98.705 256.76C99.1093 257.096 99.3321 257.552 99.3732 258.128H97.9956C97.975 257.901 97.879 257.723 97.7077 257.593C97.5432 257.456 97.3204 257.387 97.0394 257.387C96.7789 257.387 96.5768 257.435 96.4328 257.531C96.2957 257.627 96.2272 257.761 96.2272 257.932C96.2272 258.124 96.3231 258.272 96.5151 258.374C96.707 258.47 97.0051 258.57 97.4095 258.673C97.8208 258.775 98.16 258.882 98.4274 258.991C98.6947 259.101 98.9243 259.272 99.1162 259.505C99.315 259.732 99.4178 260.033 99.4246 260.41C99.4246 260.739 99.3321 261.034 99.147 261.294C98.9688 261.555 98.7084 261.76 98.3657 261.911C98.0298 262.055 97.6357 262.127 97.1833 262.127Z" fill="black" fill-opacity="0.81"/>
<path d="M225.153 261.554C225.153 262.068 225.025 262.551 224.768 263.004C224.521 263.456 224.151 263.836 223.657 264.145C223.174 264.453 222.598 264.638 221.93 264.7V265.949H220.928V264.7C219.961 264.607 219.18 264.304 218.584 263.79C217.987 263.276 217.689 262.597 217.689 261.754H219.571C219.602 262.155 219.73 262.49 219.956 262.757C220.182 263.014 220.506 263.178 220.928 263.25V259.858C220.239 259.683 219.679 259.508 219.247 259.333C218.815 259.148 218.445 258.86 218.136 258.47C217.838 258.079 217.689 257.544 217.689 256.866C217.689 256.012 217.987 255.308 218.584 254.753C219.18 254.187 219.961 253.858 220.928 253.766V252.517H221.93V253.766C222.835 253.848 223.56 254.136 224.105 254.63C224.66 255.113 224.973 255.781 225.045 256.634H223.164C223.133 256.316 223.01 256.033 222.794 255.786C222.578 255.529 222.29 255.354 221.93 255.262V258.593C222.619 258.757 223.179 258.932 223.611 259.117C224.043 259.292 224.408 259.575 224.706 259.965C225.004 260.346 225.153 260.875 225.153 261.554ZM219.478 256.773C219.478 257.195 219.602 257.524 219.848 257.76C220.105 257.997 220.465 258.187 220.928 258.331V255.216C220.486 255.267 220.131 255.426 219.864 255.694C219.607 255.961 219.478 256.321 219.478 256.773ZM221.93 263.25C222.383 263.178 222.737 262.998 222.994 262.711C223.251 262.412 223.38 262.058 223.38 261.646C223.38 261.235 223.251 260.916 222.994 260.69C222.748 260.454 222.393 260.264 221.93 260.12V263.25ZM232.823 262.495C233.172 262.217 233.332 262.089 233.301 262.109C234.308 261.276 235.1 260.593 235.676 260.058C236.262 259.523 236.755 258.963 237.156 258.377C237.557 257.791 237.758 257.22 237.758 256.665C237.758 256.244 237.66 255.915 237.465 255.678C237.269 255.442 236.976 255.324 236.586 255.324C236.195 255.324 235.886 255.473 235.66 255.771C235.444 256.059 235.336 256.47 235.336 257.004H232.792C232.812 256.131 232.997 255.401 233.347 254.815C233.707 254.229 234.175 253.797 234.75 253.519C235.336 253.242 235.984 253.103 236.694 253.103C237.917 253.103 238.837 253.416 239.454 254.044C240.081 254.671 240.395 255.488 240.395 256.496C240.395 257.596 240.019 258.619 239.269 259.565C238.518 260.5 237.562 261.415 236.401 262.31H240.564V264.453H232.823V262.495ZM249.992 255.324L246.121 264.607H243.422L247.339 255.617H242.543V253.365H249.992V255.324ZM253.633 264.731C253.171 264.731 252.79 264.597 252.492 264.33C252.204 264.052 252.06 263.713 252.06 263.312C252.06 262.901 252.204 262.556 252.492 262.279C252.79 262.001 253.171 261.862 253.633 261.862C254.086 261.862 254.456 262.001 254.744 262.279C255.042 262.556 255.191 262.901 255.191 263.312C255.191 263.713 255.042 264.052 254.744 264.33C254.456 264.597 254.086 264.731 253.633 264.731ZM260.407 261.307C260.561 262.119 261.034 262.525 261.826 262.525C262.371 262.525 262.756 262.284 262.983 261.801C263.209 261.317 263.322 260.531 263.322 259.441C263.096 259.76 262.787 260.007 262.397 260.181C262.006 260.356 261.569 260.444 261.086 260.444C260.428 260.444 259.842 260.31 259.328 260.043C258.814 259.765 258.407 259.359 258.109 258.824C257.821 258.279 257.677 257.621 257.677 256.85C257.677 256.089 257.832 255.426 258.14 254.861C258.459 254.295 258.906 253.858 259.482 253.55C260.068 253.242 260.757 253.087 261.548 253.087C263.07 253.087 264.134 253.56 264.741 254.506C265.347 255.452 265.651 256.845 265.651 258.685C265.651 260.022 265.527 261.127 265.28 262.001C265.044 262.865 264.638 263.523 264.062 263.975C263.497 264.428 262.72 264.654 261.733 264.654C260.952 264.654 260.284 264.499 259.729 264.191C259.184 263.883 258.762 263.476 258.464 262.973C258.176 262.469 258.012 261.914 257.97 261.307H260.407ZM261.687 258.362C262.119 258.362 262.463 258.233 262.72 257.976C262.977 257.709 263.106 257.349 263.106 256.897C263.106 256.403 262.972 256.023 262.705 255.755C262.438 255.488 262.078 255.354 261.625 255.354C261.173 255.354 260.813 255.493 260.546 255.771C260.289 256.038 260.16 256.408 260.16 256.881C260.16 257.323 260.289 257.683 260.546 257.961C260.813 258.228 261.194 258.362 261.687 258.362ZM270.975 261.307C271.129 262.119 271.602 262.525 272.393 262.525C272.938 262.525 273.324 262.284 273.55 261.801C273.776 261.317 273.889 260.531 273.889 259.441C273.663 259.76 273.355 260.007 272.964 260.181C272.573 260.356 272.136 260.444 271.653 260.444C270.995 260.444 270.409 260.31 269.895 260.043C269.381 259.765 268.975 259.359 268.677 258.824C268.389 258.279 268.245 257.621 268.245 256.85C268.245 256.089 268.399 255.426 268.708 254.861C269.026 254.295 269.474 253.858 270.049 253.55C270.635 253.242 271.324 253.087 272.116 253.087C273.637 253.087 274.702 253.56 275.308 254.506C275.915 255.452 276.218 256.845 276.218 258.685C276.218 260.022 276.095 261.127 275.848 262.001C275.611 262.865 275.205 263.523 274.63 263.975C274.064 264.428 273.288 264.654 272.301 264.654C271.52 264.654 270.851 264.499 270.296 264.191C269.751 263.883 269.33 263.476 269.031 262.973C268.744 262.469 268.579 261.914 268.538 261.307H270.975ZM272.255 258.362C272.686 258.362 273.031 258.233 273.288 257.976C273.545 257.709 273.673 257.349 273.673 256.897C273.673 256.403 273.54 256.023 273.272 255.755C273.005 255.488 272.645 255.354 272.193 255.354C271.741 255.354 271.381 255.493 271.113 255.771C270.856 256.038 270.728 256.408 270.728 256.881C270.728 257.323 270.856 257.683 271.113 257.961C271.381 258.228 271.761 258.362 272.255 258.362Z" fill="black" fill-opacity="0.81"/>
<path d="M102.691 86.9104H96.7073L95.6792 89.8302H93.2323L98.3523 75.5188H101.067L106.187 89.8302H103.719L102.691 86.9104ZM102.033 84.9981L99.7094 78.3564L97.3653 84.9981H102.033ZM108.454 84.1139C108.454 82.9761 108.687 81.9686 109.153 81.0912C109.633 80.2139 110.277 79.5354 111.086 79.0556C111.908 78.5621 112.82 78.3153 113.821 78.3153C114.561 78.3153 115.287 78.4798 116 78.8088C116.727 79.1241 117.303 79.5491 117.727 80.0837V74.6141H120.092V89.8302H117.727V88.1236C117.344 88.6719 116.809 89.1243 116.124 89.4807C115.452 89.8371 114.677 90.0153 113.8 90.0153C112.813 90.0153 111.908 89.7685 111.086 89.275C110.277 88.7678 109.633 88.0687 109.153 87.1777C108.687 86.2729 108.454 85.2517 108.454 84.1139ZM117.727 84.155C117.727 83.3737 117.563 82.6951 117.234 82.1194C116.919 81.5436 116.501 81.1049 115.98 80.8034C115.459 80.5018 114.897 80.351 114.294 80.351C113.69 80.351 113.128 80.5018 112.607 80.8034C112.087 81.0912 111.662 81.523 111.333 82.0988C111.017 82.6608 110.86 83.3325 110.86 84.1139C110.86 84.8953 111.017 85.5807 111.333 86.1701C111.662 86.7596 112.087 87.212 112.607 87.5272C113.142 87.8288 113.704 87.9796 114.294 87.9796C114.897 87.9796 115.459 87.8288 115.98 87.5272C116.501 87.2257 116.919 86.787 117.234 86.2113C117.563 85.6218 117.727 84.9364 117.727 84.155ZM123.212 84.1139C123.212 82.9761 123.445 81.9686 123.911 81.0912C124.391 80.2139 125.035 79.5354 125.844 79.0556C126.667 78.5621 127.578 78.3153 128.579 78.3153C129.319 78.3153 130.046 78.4798 130.759 78.8088C131.485 79.1241 132.061 79.5491 132.486 80.0837V74.6141H134.85V89.8302H132.486V88.1236C132.102 88.6719 131.567 89.1243 130.882 89.4807C130.21 89.8371 129.436 90.0153 128.558 90.0153C127.571 90.0153 126.667 89.7685 125.844 89.275C125.035 88.7678 124.391 88.0687 123.911 87.1777C123.445 86.2729 123.212 85.2517 123.212 84.1139ZM132.486 84.155C132.486 83.3737 132.321 82.6951 131.992 82.1194C131.677 81.5436 131.259 81.1049 130.738 80.8034C130.217 80.5018 129.655 80.351 129.052 80.351C128.449 80.351 127.887 80.5018 127.366 80.8034C126.845 81.0912 126.42 81.523 126.091 82.0988C125.776 82.6608 125.618 83.3325 125.618 84.1139C125.618 84.8953 125.776 85.5807 126.091 86.1701C126.42 86.7596 126.845 87.212 127.366 87.5272C127.9 87.8288 128.462 87.9796 129.052 87.9796C129.655 87.9796 130.217 87.8288 130.738 87.5272C131.259 87.2257 131.677 86.787 131.992 86.2113C132.321 85.6218 132.486 84.9364 132.486 84.155ZM154.148 75.5394V77.4517H150.344V89.8302H148V77.4517H144.175V75.5394H154.148ZM162.259 90.0153C161.19 90.0153 160.223 89.7754 159.36 89.2956C158.496 88.8021 157.818 88.1167 157.324 87.2394C156.831 86.3483 156.584 85.3202 156.584 84.155C156.584 83.0035 156.837 81.9823 157.345 81.0912C157.852 80.2002 158.544 79.5148 159.421 79.035C160.299 78.5552 161.279 78.3153 162.362 78.3153C163.445 78.3153 164.425 78.5552 165.302 79.035C166.18 79.5148 166.872 80.2002 167.379 81.0912C167.886 81.9823 168.14 83.0035 168.14 84.155C168.14 85.3065 167.879 86.3278 167.359 87.2188C166.838 88.1098 166.125 88.8021 165.22 89.2956C164.329 89.7754 163.342 90.0153 162.259 90.0153ZM162.259 87.9796C162.862 87.9796 163.424 87.8357 163.945 87.5478C164.48 87.2599 164.912 86.8281 165.241 86.2524C165.57 85.6766 165.734 84.9775 165.734 84.155C165.734 83.3325 165.576 82.6403 165.261 82.0782C164.946 81.5025 164.528 81.0707 164.007 80.7828C163.486 80.4949 162.924 80.351 162.321 80.351C161.718 80.351 161.156 80.4949 160.635 80.7828C160.127 81.0707 159.723 81.5025 159.421 82.0782C159.12 82.6403 158.969 83.3325 158.969 84.155C158.969 85.3751 159.278 86.3209 159.894 86.9926C160.525 87.6506 161.313 87.9796 162.259 87.9796ZM176.662 82.654C176.662 81.2557 176.984 80.0014 177.629 78.8911C178.287 77.7807 179.171 76.9171 180.281 76.3002C181.405 75.6696 182.632 75.3543 183.962 75.3543C185.483 75.3543 186.834 75.7313 188.013 76.4853C189.205 77.2255 190.069 78.2811 190.603 79.6519H187.786C187.416 78.8979 186.902 78.3359 186.244 77.9658C185.586 77.5956 184.825 77.4106 183.962 77.4106C183.016 77.4106 182.173 77.6231 181.433 78.048C180.692 78.473 180.11 79.083 179.685 79.8781C179.274 80.6731 179.068 81.5984 179.068 82.654C179.068 83.7095 179.274 84.6348 179.685 85.4299C180.11 86.225 180.692 86.8418 181.433 87.2805C182.173 87.7055 183.016 87.9179 183.962 87.9179C184.825 87.9179 185.586 87.7329 186.244 87.3628C186.902 86.9926 187.416 86.4306 187.786 85.6766H190.603C190.069 87.0475 189.205 88.103 188.013 88.8432C186.834 89.5835 185.483 89.9536 183.962 89.9536C182.618 89.9536 181.392 89.6452 180.281 89.0283C179.171 88.3977 178.287 87.5272 177.629 86.4169C176.984 85.3065 176.662 84.0522 176.662 82.654ZM193.388 84.1139C193.388 82.9761 193.621 81.9686 194.087 81.0912C194.567 80.2139 195.212 79.5354 196.02 79.0556C196.843 78.5621 197.748 78.3153 198.735 78.3153C199.626 78.3153 200.4 78.4935 201.058 78.8499C201.73 79.1926 202.264 79.6245 202.662 80.1454V78.5004H205.027V89.8302H202.662V88.1441C202.264 88.6787 201.723 89.1243 201.038 89.4807C200.352 89.8371 199.571 90.0153 198.693 90.0153C197.72 90.0153 196.829 89.7685 196.02 89.275C195.212 88.7678 194.567 88.0687 194.087 87.1777C193.621 86.2729 193.388 85.2517 193.388 84.1139ZM202.662 84.155C202.662 83.3737 202.497 82.6951 202.168 82.1194C201.853 81.5436 201.435 81.1049 200.914 80.8034C200.393 80.5018 199.831 80.351 199.228 80.351C198.625 80.351 198.063 80.5018 197.542 80.8034C197.021 81.0912 196.596 81.523 196.267 82.0988C195.952 82.6608 195.794 83.3325 195.794 84.1139C195.794 84.8953 195.952 85.5807 196.267 86.1701C196.596 86.7596 197.021 87.212 197.542 87.5272C198.077 87.8288 198.639 87.9796 199.228 87.9796C199.831 87.9796 200.393 87.8288 200.914 87.5272C201.435 87.2257 201.853 86.787 202.168 86.2113C202.497 85.6218 202.662 84.9364 202.662 84.155ZM211.272 80.1454C211.615 79.5696 212.067 79.1241 212.629 78.8088C213.205 78.4798 213.884 78.3153 214.665 78.3153V80.7417H214.069C213.15 80.7417 212.451 80.9747 211.971 81.4408C211.505 81.9069 211.272 82.7157 211.272 83.8672V89.8302H208.928V78.5004H211.272V80.1454ZM220.377 80.4127V86.6842C220.377 87.1091 220.473 87.4176 220.665 87.6095C220.87 87.7877 221.213 87.8768 221.693 87.8768H223.132V89.8302H221.282C220.226 89.8302 219.417 89.5835 218.855 89.09C218.293 88.5965 218.012 87.7946 218.012 86.6842V80.4127H216.676V78.5004H218.012V75.6833H220.377V78.5004H223.132V80.4127H220.377Z" fill="black" fill-opacity="0.71"/>
<g clip-path="url(#clip1)">
<path d="M217.513 143.121C208.511 143.121 201.217 150.415 201.217 159.418C201.217 168.42 208.511 175.714 217.513 175.714C226.516 175.714 233.809 168.42 233.809 159.418C233.809 150.415 226.516 143.121 217.513 143.121ZM226.976 161.257C226.976 161.691 226.621 162.046 226.187 162.046H220.142V168.091C220.142 168.525 219.787 168.88 219.353 168.88H215.673C215.24 168.88 214.885 168.525 214.885 168.091V162.046H208.84C208.406 162.046 208.051 161.691 208.051 161.257V157.578C208.051 157.144 208.406 156.789 208.84 156.789H214.885V150.744C214.885 150.31 215.24 149.955 215.673 149.955H219.353C219.787 149.955 220.142 150.31 220.142 150.744V156.789H226.187C226.621 156.789 226.976 157.144 226.976 157.578V161.257Z" fill="#31CD6F"/>
</g>
<path d="M127.599 77.2032H116.584C116.077 77.2032 115.666 77.3813 115.666 77.601V77.9988C115.666 78.2184 116.077 78.3966 116.584 78.3966H127.599C128.106 78.3966 128.517 78.2184 128.517 77.9988V77.601C128.517 77.3813 128.106 77.2032 127.599 77.2032Z" fill="#C5C5C5"/>
<circle cx="117.822" cy="158.822" r="15.7004" stroke="#C5C5C5" stroke-width="2.24291"/>
<rect x="138.569" y="143.682" width="60.5585" height="32.5222" rx="3.92509" stroke="#C5C5C5" stroke-width="1.12145"/>
<path d="M165.012 156.69C165.064 155.644 165.431 154.838 166.111 154.273C166.802 153.697 167.707 153.409 168.827 153.409C169.591 153.409 170.246 153.545 170.79 153.817C171.334 154.079 171.742 154.44 172.014 154.901C172.297 155.351 172.438 155.863 172.438 156.439C172.438 157.099 172.266 157.659 171.92 158.119C171.585 158.569 171.182 158.873 170.711 159.03V159.093C171.318 159.281 171.789 159.616 172.124 160.097C172.47 160.579 172.642 161.196 172.642 161.95C172.642 162.578 172.496 163.138 172.203 163.63C171.92 164.122 171.496 164.509 170.931 164.792C170.376 165.064 169.706 165.2 168.921 165.2C167.739 165.2 166.776 164.902 166.033 164.305C165.289 163.708 164.897 162.829 164.855 161.667H166.99C167.011 162.18 167.184 162.594 167.508 162.908C167.843 163.211 168.299 163.363 168.874 163.363C169.408 163.363 169.816 163.216 170.099 162.923C170.392 162.62 170.539 162.233 170.539 161.762C170.539 161.134 170.34 160.683 169.942 160.411C169.544 160.139 168.927 160.003 168.089 160.003H167.634V158.198H168.089C169.576 158.198 170.319 157.7 170.319 156.706C170.319 156.256 170.183 155.905 169.911 155.654C169.649 155.403 169.267 155.277 168.764 155.277C168.273 155.277 167.89 155.413 167.618 155.686C167.357 155.947 167.205 156.282 167.163 156.69H165.012Z" fill="#C5C5C5"/>
<line x1="112" y1="158.715" x2="124.851" y2="158.715" stroke="#C5C5C5" stroke-width="2.57029"/>
</g>
<defs>
<filter id="filter0_d" x="0.859416" y="0.859416" width="338.422" height="340.135" filterUnits="userSpaceOnUse" color-interpolation-filters="sRGB">
<feFlood flood-opacity="0" result="BackgroundImageFix"/>
<feColorMatrix in="SourceAlpha" type="matrix" values="0 0 0 0 0 0 0 0 0 0 0 0 0 0 0 0 0 0 127 0"/>
<feOffset dx="3.42706" dy="3.42706"/>
<feGaussianBlur stdDeviation="4.28382"/>
<feColorMatrix type="matrix" values="0 0 0 0 0 0 0 0 0 0 0 0 0 0 0 0 0 0 0.25 0"/>
<feBlend mode="normal" in2="BackgroundImageFix" result="effect1_dropShadow"/>
<feBlend mode="normal" in="SourceGraphic" in2="effect1_dropShadow" result="shape"/>
</filter>
<clipPath id="clip0">
<rect width="321.286" height="323" fill="white" transform="translate(6 6)"/>
</clipPath>
<clipPath id="clip1">
<rect width="33.6436" height="33.6436" fill="white" transform="translate(199.688 143.121)"/>
</clipPath>
</defs>
</svg>
