<svg width="375" height="812" viewBox="0 0 375 812" fill="none" xmlns="http://www.w3.org/2000/svg">
<g clip-path="url(#clip0)">
<rect width="375" height="812" rx="30" fill="white"/>
<path d="M86.056 435.276L83.536 441H79L90.088 415.836H94.624L105.712 441H101.176L98.656 435.276H86.056ZM96.928 431.352L92.356 420.984L87.784 431.352H96.928ZM112.667 430.632V441H108.635V421.848H112.667V425.34C113.315 424.164 114.203 423.24 115.331 422.568C116.483 421.896 117.719 421.56 119.039 421.56C121.199 421.56 122.939 422.22 124.259 423.54C125.603 424.86 126.275 426.768 126.275 429.264V441H122.243V430.488C122.243 426.96 120.779 425.196 117.851 425.196C116.459 425.196 115.247 425.664 114.215 426.6C113.183 427.512 112.667 428.856 112.667 430.632ZM135.94 441H131.908V421.848H135.94V441ZM132.16 418.032C131.656 417.528 131.404 416.928 131.404 416.232C131.404 415.536 131.656 414.936 132.16 414.432C132.664 413.928 133.264 413.676 133.96 413.676C134.656 413.676 135.256 413.928 135.76 414.432C136.264 414.936 136.516 415.536 136.516 416.232C136.516 416.928 136.264 417.528 135.76 418.032C135.256 418.536 134.656 418.788 133.96 418.788C133.264 418.788 132.664 418.536 132.16 418.032ZM145.819 430.632V441H141.787V421.848H145.819V425.34C146.395 424.164 147.259 423.24 148.411 422.568C149.587 421.896 150.847 421.56 152.191 421.56C155.215 421.56 157.267 422.808 158.347 425.304C160.243 422.808 162.607 421.56 165.439 421.56C167.599 421.56 169.339 422.22 170.659 423.54C172.003 424.86 172.675 426.768 172.675 429.264V441H168.643V430.488C168.643 426.96 167.179 425.196 164.251 425.196C162.883 425.196 161.683 425.64 160.651 426.528C159.643 427.392 159.115 428.664 159.067 430.344V441H155.035V430.488C155.035 428.664 154.711 427.332 154.063 426.492C153.415 425.628 152.395 425.196 151.003 425.196C149.611 425.196 148.399 425.664 147.367 426.6C146.335 427.512 145.819 428.856 145.819 430.632ZM193.795 441H190.123V438.444C188.539 440.34 186.415 441.288 183.751 441.288C181.759 441.288 180.103 440.724 178.783 439.596C177.487 438.468 176.839 436.968 176.839 435.096C176.839 433.2 177.535 431.784 178.927 430.848C180.319 429.912 182.203 429.444 184.579 429.444H189.799V428.724C189.799 426.18 188.383 424.908 185.551 424.908C183.775 424.908 181.927 425.556 180.007 426.852L178.207 424.332C180.535 422.484 183.175 421.56 186.127 421.56C188.383 421.56 190.219 422.136 191.635 423.288C193.075 424.416 193.795 426.204 193.795 428.652V441ZM189.763 433.872V432.252H185.227C182.323 432.252 180.871 433.164 180.871 434.988C180.871 435.924 181.231 436.644 181.951 437.148C182.671 437.628 183.667 437.868 184.939 437.868C186.235 437.868 187.363 437.508 188.323 436.788C189.283 436.068 189.763 435.096 189.763 433.872ZM203.44 441H199.408V414.288H203.44V441ZM227.59 433.944L233.206 415.836H237.022L242.638 433.944L248.974 415.836H253.546L244.762 441H240.55L235.258 423.756H234.97L229.678 441H225.466L216.682 415.836H221.254L227.59 433.944ZM260.921 441H256.889V421.848H260.921V441ZM257.141 418.032C256.637 417.528 256.385 416.928 256.385 416.232C256.385 415.536 256.637 414.936 257.141 414.432C257.645 413.928 258.245 413.676 258.941 413.676C259.637 413.676 260.237 413.928 260.741 414.432C261.245 414.936 261.497 415.536 261.497 416.232C261.497 416.928 261.245 417.528 260.741 418.032C260.237 418.536 259.637 418.788 258.941 418.788C258.245 418.788 257.645 418.536 257.141 418.032ZM270.8 441H266.768V414.288H270.8V429.984L278.576 421.848H283.76L276.488 429.444L284.3 441H279.404L273.716 432.612L270.8 435.564V441ZM291.718 441H287.686V421.848H291.718V441ZM287.938 418.032C287.434 417.528 287.182 416.928 287.182 416.232C287.182 415.536 287.434 414.936 287.938 414.432C288.442 413.928 289.042 413.676 289.738 413.676C290.434 413.676 291.034 413.928 291.538 414.432C292.042 414.936 292.294 415.536 292.294 416.232C292.294 416.928 292.042 417.528 291.538 418.032C291.034 418.536 290.434 418.788 289.738 418.788C289.042 418.788 288.442 418.536 287.938 418.032Z" fill="#0081A7"/>
</g>
<defs>
<clipPath id="clip0">
<rect width="375" height="812" rx="30" fill="white"/>
</clipPath>
</defs>
</svg>
